<?xml version="1.0" standalone="no"?>
<!DOCTYPE svg PUBLIC "-//W3C//DTD SVG 20010904//EN"
 "http://www.w3.org/TR/2001/REC-SVG-20010904/DTD/svg10.dtd">
<svg version="1.0" xmlns="http://www.w3.org/2000/svg"
 width="520.000000pt" height="520.000000pt" viewBox="0 0 520.000000 520.000000"
 preserveAspectRatio="xMidYMid meet">
<metadata>
Created by potrace 1.14, written by Peter Selinger 2001-2017
</metadata>
<g transform="translate(0.000000,520.000000) scale(0.100000,-0.100000)"
fill="#000000" stroke="none">
<path d="M1276 5163 c-4 -4 -22 -8 -39 -9 -80 -5 -208 -20 -252 -28 -16 -4
-46 -9 -65 -12 -19 -3 -38 -8 -42 -11 -5 -2 -18 -6 -30 -9 -38 -9 -53 -12 -55
-14 -2 -2 -6 -3 -10 -5 -52 -14 -63 -19 -63 -27 0 -5 -4 -7 -9 -3 -5 3 -15 0
-23 -7 -7 -7 -20 -14 -28 -16 -8 -2 -23 -11 -32 -19 -10 -9 -18 -13 -18 -9 0
8 -61 -33 -72 -49 -5 -6 -8 -6 -8 0 0 6 -12 -3 -26 -20 -15 -16 -23 -23 -19
-15 4 8 -7 0 -23 -18 -17 -18 -34 -34 -39 -35 -4 -1 -7 -5 -6 -9 2 -5 -3 -7
-10 -5 -6 1 -11 -4 -9 -11 1 -8 -1 -11 -6 -8 -11 6 -53 -40 -45 -48 4 -3 1 -6
-5 -6 -6 0 -26 -21 -43 -47 -18 -27 -40 -54 -48 -61 -13 -11 -14 -12 -1 -7 8
4 6 -2 -6 -12 -18 -15 -32 -41 -36 -63 -1 -3 -8 -11 -17 -18 -13 -11 -13 -12
-1 -7 8 4 6 -1 -5 -10 -11 -9 -20 -19 -19 -23 0 -4 -5 -20 -12 -37 -7 -16 -10
-33 -8 -37 3 -5 0 -8 -6 -8 -6 0 -9 -4 -5 -9 3 -5 0 -13 -6 -16 -5 -4 -8 -13
-5 -20 2 -7 2 -16 -2 -19 -3 -4 -7 -12 -8 -19 -2 -7 -5 -22 -8 -34 -11 -43
-16 -68 -22 -103 -3 -19 -7 -46 -10 -60 -6 -30 -11 -91 -19 -225 -7 -121 -8
-2535 -1 -2655 7 -128 15 -212 22 -240 3 -14 7 -36 9 -50 4 -27 16 -87 22
-108 1 -6 5 -20 7 -30 3 -9 5 -19 6 -22 1 -3 2 -8 1 -12 0 -5 3 -8 8 -8 6 0 9
-8 9 -17 -2 -22 72 -183 84 -183 4 0 8 -7 8 -15 0 -8 5 -15 12 -15 6 0 9 -3 5
-6 -6 -7 35 -68 65 -95 10 -9 18 -20 18 -25 0 -14 37 -43 45 -36 4 4 5 0 3 -8
-2 -8 3 -14 9 -13 7 2 12 -1 10 -5 -3 -11 84 -91 99 -92 7 0 14 -7 18 -15 3
-8 12 -15 20 -15 8 0 16 -4 18 -9 1 -5 10 -11 18 -13 8 -2 23 -11 34 -20 10
-10 23 -15 28 -12 4 3 8 0 8 -6 0 -6 4 -8 10 -5 6 3 10 1 10 -5 0 -6 4 -9 9
-6 5 3 14 -1 21 -9 7 -8 16 -12 21 -9 5 3 9 0 9 -5 0 -6 3 -10 8 -9 4 1 17 -3
30 -10 12 -7 22 -10 22 -6 0 3 6 2 13 -4 33 -28 266 -70 432 -78 66 -3 143 -8
170 -10 86 -8 2413 -9 2409 -2 -3 4 45 6 106 5 60 -1 110 2 110 6 0 4 21 8 48
8 67 0 117 5 129 12 6 4 31 8 56 9 25 2 43 7 40 12 -3 5 8 7 25 4 17 -2 29 -1
27 3 -6 9 54 21 68 12 6 -3 7 -1 3 5 -7 11 8 16 42 15 7 -1 11 2 8 5 -9 9 75
43 88 35 6 -3 8 -3 4 2 -10 11 50 47 64 39 6 -4 8 -3 5 3 -7 10 52 49 68 44 6
-1 7 1 3 5 -9 9 33 40 47 36 6 -2 7 0 3 4 -9 8 32 40 45 36 5 -1 6 2 3 7 -7
11 19 33 28 23 4 -4 6 0 4 8 -2 9 3 14 12 12 8 -2 12 0 8 4 -4 4 5 21 20 39
15 18 34 41 42 51 29 35 76 109 88 136 6 16 16 28 22 28 5 0 9 3 8 8 -1 4 10
39 24 77 27 70 52 160 63 225 3 19 8 42 10 50 26 96 31 370 29 1595 -2 1359
-4 1407 -40 1608 -3 17 -7 41 -9 52 -8 42 -11 55 -17 61 -4 3 -4 12 -2 19 3 7
1 16 -5 19 -6 4 -8 13 -4 21 3 8 0 15 -6 15 -6 0 -8 7 -5 15 4 8 1 15 -5 15
-6 0 -8 7 -5 15 4 8 1 15 -5 15 -6 0 -10 3 -9 8 3 12 -45 112 -54 112 -5 0 -7
4 -4 9 3 5 -7 21 -22 37 -15 15 -21 24 -13 19 8 -5 2 8 -13 28 -16 20 -33 37
-38 37 -5 0 -7 4 -3 9 3 6 -4 15 -16 21 -11 7 -18 14 -16 17 9 8 -36 54 -61
64 -13 5 -26 18 -29 29 -3 11 -9 20 -14 20 -4 0 -17 10 -29 22 -11 12 -20 18
-20 13 0 -5 -7 1 -16 13 -8 12 -20 20 -25 17 -5 -4 -12 1 -15 9 -3 9 -15 16
-27 16 -11 0 -17 3 -14 6 6 7 -67 50 -94 56 -7 2 -20 9 -27 16 -8 7 -18 10
-23 7 -5 -4 -9 -2 -9 3 0 9 -40 22 -80 27 -9 1 -25 7 -35 12 -11 6 -40 14 -65
18 -65 10 -81 12 -120 20 -31 6 -67 9 -193 19 -21 2 -40 6 -44 10 -9 9 -2638
8 -2647 -1z"/>
</g>
</svg>
